<?xml version="1.0" standalone="no"?>
<!DOCTYPE svg PUBLIC "-//W3C//DTD SVG 20010904//EN"
 "http://www.w3.org/TR/2001/REC-SVG-20010904/DTD/svg10.dtd">
<svg version="1.0" xmlns="http://www.w3.org/2000/svg"
 width="360.000000pt" height="364.000000pt" viewBox="0 0 360.000000 364.000000"
 preserveAspectRatio="xMidYMid meet">

<g transform="translate(0.000000,364.000000) scale(0.100000,-0.100000)"
fill="#000000" stroke="none">
<path d="M1605 3594 c-282 -43 -478 -111 -680 -237 -306 -190 -573 -501 -709
-826 -96 -230 -126 -377 -133 -658 -6 -232 7 -363 52 -537 160 -616 692 -1135
1296 -1264 393 -85 800 -37 1142 134 426 214 789 655 912 1108 77 284 85 618
23 906 -126 587 -587 1110 -1140 1294 -190 64 -279 78 -518 81 -118 2 -228 1
-245 -1z m444 -129 c336 -49 609 -185 865 -434 284 -276 446 -592 496 -971 15
-110 15 -371 0 -480 -64 -476 -339 -905 -751 -1173 -442 -288 -1044 -326
-1525 -96 -254 121 -541 382 -693 631 -190 312 -271 685 -231 1068 44 422 241
799 564 1081 244 213 520 339 826 378 110 14 336 12 449 -4z"/>
<path d="M1587 3264 c-168 -26 -324 -80 -462 -161 -240 -140 -458 -373 -579
-617 -109 -220 -150 -400 -150 -661 0 -321 70 -566 232 -810 219 -331 535
-552 895 -626 396 -80 824 14 1122 248 l56 44 -32 41 c-45 57 -123 116 -199
151 -143 68 -345 37 -480 -74 -19 -16 -42 -29 -51 -29 -23 0 -125 114 -198
220 -108 157 -161 283 -241 565 -85 302 -120 332 -336 288 -69 -15 -94 -15
-150 -6 -181 31 -319 165 -355 347 -26 125 35 302 132 390 76 68 141 90 269
91 l105 0 100 -50 c54 -27 102 -51 106 -53 4 -2 17 14 29 34 21 33 22 37 7 46
-35 19 -6 112 42 137 24 13 40 8 109 -36 59 -37 65 -57 31 -113 -29 -49 -46
-61 -74 -50 -19 7 -25 3 -45 -31 -12 -22 -20 -42 -19 -43 2 -1 50 -30 106 -64
l103 -61 21 40 20 41 -21 23 -22 24 25 55 c15 31 34 59 43 63 23 9 139 -53
152 -82 7 -14 6 -33 -3 -58 -19 -55 -34 -69 -71 -65 -30 3 -34 0 -53 -41 -11
-25 -19 -46 -18 -46 1 -1 47 -29 103 -63 56 -34 104 -62 107 -62 3 0 15 15 26
34 21 33 21 35 4 65 -18 30 -17 32 6 76 32 60 59 67 127 31 94 -50 100 -68 43
-146 -26 -36 -34 -41 -58 -35 -24 5 -30 1 -49 -33 -17 -31 -19 -42 -9 -49 39
-31 188 -113 196 -109 4 3 14 19 21 36 11 26 10 33 -5 50 -16 17 -17 25 -7 59
7 21 23 50 36 64 28 30 41 28 122 -19 54 -32 63 -60 38 -115 -20 -45 -45 -63
-74 -54 -15 5 -23 -3 -39 -33 -16 -31 -18 -42 -8 -49 19 -15 184 -113 190
-113 3 0 15 16 27 35 21 33 21 37 6 54 -9 10 -16 25 -16 35 0 38 52 106 81
106 24 0 136 -68 143 -87 4 -9 -7 -39 -23 -67 -26 -47 -32 -51 -64 -50 -31 1
-38 -4 -56 -37 l-22 -38 23 -15 c13 -8 61 -37 108 -65 l85 -51 20 41 c19 39
19 41 2 53 -9 7 -17 24 -17 37 0 36 42 104 67 107 26 4 111 -38 137 -67 17
-19 18 -26 7 -62 -16 -55 -46 -83 -80 -76 -23 5 -28 1 -43 -35 -10 -23 -17
-42 -15 -43 1 0 28 -17 59 -38 95 -61 132 -149 104 -242 -9 -27 -16 -68 -16
-90 0 -42 32 -125 48 -125 25 0 107 229 139 386 27 135 25 463 -5 596 -63 284
-179 502 -381 711 -135 140 -246 223 -396 297 -200 99 -385 141 -620 139 -71
-1 -170 -7 -218 -15z"/>
<path d="M1253 2445 c-30 -21 -39 -74 -19 -113 40 -77 156 -45 156 43 0 70
-80 110 -137 70z"/>
<path d="M1540 2265 c-51 -54 -15 -145 57 -145 76 0 115 103 57 149 -37 29
-85 27 -114 -4z"/>
<path d="M1820 2085 c-74 -78 30 -190 114 -124 35 28 37 95 3 127 -33 31 -87
29 -117 -3z"/>
<path d="M2115 1915 c-54 -53 -17 -149 56 -147 76 2 112 100 55 148 -36 31
-80 31 -111 -1z"/>
<path d="M2407 1750 c-34 -27 -43 -70 -22 -110 40 -78 155 -53 155 34 0 48 -8
65 -41 81 -38 20 -62 19 -92 -5z"/>
<path d="M2714 1576 c-59 -26 -68 -106 -17 -146 58 -45 133 -7 133 68 0 64
-58 103 -116 78z"/>
</g>
</svg>
